<?xml version="1.0" standalone="no"?>
<!DOCTYPE svg PUBLIC "-//W3C//DTD SVG 20010904//EN"
 "http://www.w3.org/TR/2001/REC-SVG-20010904/DTD/svg10.dtd">
<svg version="1.0" xmlns="http://www.w3.org/2000/svg"
 width="640.000000pt" height="1280.000000pt" viewBox="0 0 640.000000 1280.000000"
 preserveAspectRatio="xMidYMid meet">
<g transform="translate(0.000000,1280.000000) scale(0.100000,-0.100000)"
fill="#000000" stroke="none">
<path d="M3275 12727 c-288 -155 -469 -327 -584 -553 -118 -233 -201 -669
-266 -1399 -14 -159 -34 -387 -45 -505 -36 -395 -70 -1090 -70 -1424 0 -94 -4
-156 -10 -156 -16 0 -80 -61 -98 -94 -16 -29 -17 -146 -20 -1602 l-2 -1571
-45 -17 c-52 -20 -111 -83 -125 -135 -6 -23 -10 -739 -10 -2014 l0 -1978 -117
6 c-65 3 -128 8 -140 11 l-23 4 0 -458 0 -458 71 -35 c40 -19 64 -35 55 -37
-9 -2 -16 -12 -16 -22 0 -87 369 -147 1048 -172 499 -18 1091 8 1422 63 69 12
134 26 145 32 11 6 81 13 155 15 l135 4 -3 457 -3 456 -156 7 c-112 5 -158 11
-164 20 -5 7 -9 929 -9 2048 0 1947 -1 2037 -19 2075 -22 49 -76 99 -125 115
l-36 11 -2 1572 -3 1572 -23 40 c-13 22 -40 52 -61 67 l-38 27 -6 318 c-10
457 -30 861 -62 1208 -8 88 -24 266 -35 395 -60 688 -105 998 -190 1306 -88
314 -231 596 -405 798 l-40 46 -80 -43z"/>
</g>
</svg>
